<svg width="35" height="35" viewBox="0 0 35 35" fill="none" xmlns="http://www.w3.org/2000/svg">
<path d="M17.033 0.414858C17.0987 -0.138286 17.9013 -0.138286 17.967 0.414858L18.5176 5.05523C19.2286 11.0472 23.9528 15.7714 29.9447 16.4824L34.5851 17.033C35.1383 17.0987 35.1383 17.9013 34.5851 17.967L29.9447 18.5176C23.9528 19.2286 19.2286 23.9528 18.5176 29.9447L17.967 34.5851C17.9013 35.1383 17.0987 35.1383 17.033 34.5851L16.4824 29.9447C15.7714 23.9528 11.0472 19.2286 5.05523 18.5176L0.414858 17.967C-0.138286 17.9013 -0.138286 17.0987 0.414858 17.033L5.05523 16.4824C11.0472 15.7714 15.7714 11.0472 16.4824 5.05523L17.033 0.414858Z" fill="white"/>
</svg>
