<svg width="26" height="29" viewBox="0 0 26 29" fill="none" xmlns="http://www.w3.org/2000/svg">
<path opacity="0.75" d="M15 2.25V3.34375C18.9922 4.16406 22 7.66406 22 11.875V12.9141C22 15.4844 22.9297 18 24.625 19.9141L25.0078 20.3516C25.5 20.8984 25.6094 21.6094 25.3359 22.2656C25.0625 22.8672 24.4062 23.25 23.75 23.25H2.75C2.03906 23.25 1.38281 22.8672 1.10938 22.2656C0.835938 21.6094 0.945312 20.8984 1.4375 20.3516L1.82031 19.9141C3.51562 18 4.5 15.4844 4.5 12.9141V11.875C4.5 7.66406 7.45312 4.16406 11.5 3.34375V2.25C11.5 1.32031 12.2656 0.5 13.25 0.5C14.1797 0.5 15 1.32031 15 2.25ZM13.25 28.5C12.3203 28.5 11.3906 28.1719 10.7344 27.5156C10.0781 26.8594 9.75 25.9297 9.75 25H16.75C16.75 25.9297 16.3672 26.8594 15.7109 27.5156C15.0547 28.1719 14.125 28.5 13.25 28.5Z" fill="white"/>
</svg>
