<svg width="28" height="25" viewBox="0 0 28 25" fill="none" xmlns="http://www.w3.org/2000/svg">
<path opacity="0.75" d="M14 0.25C21.7109 0.25 27.9453 5.39062 27.9453 11.625C27.9453 17.8594 21.7656 23 14 23C11.9219 23 9.95312 22.5625 8.14844 21.9062C6.72656 23 4.10156 24.75 0.4375 24.75C0.273438 24.75 0.109375 24.6406 0.0546875 24.4766C0 24.3125 0 24.0938 0.164062 23.9844C0.164062 23.9844 2.46094 21.5234 3.11719 18.7344C1.20312 16.8203 0 14.3047 0 11.625C0 5.33594 6.23438 0.25 14 0.25ZM6.94531 13.375C7.92969 13.375 8.69531 12.6094 8.69531 11.625C8.69531 10.6953 7.875 9.875 6.94531 9.875C5.96094 9.875 5.19531 10.75 5.19531 11.625C5.19531 12.5547 5.96094 13.375 6.94531 13.375ZM14 13.375C14.9297 13.375 15.6953 12.6094 15.6953 11.625C15.6953 10.6953 14.875 9.875 14 9.875C13.0703 9.875 12.25 10.75 12.25 11.625C12.25 12.5547 13.0156 13.375 14 13.375ZM20.9453 13.375C21.9297 13.375 22.6953 12.6094 22.6953 11.625C22.6953 10.6953 21.875 9.875 20.9453 9.875C19.9609 9.875 19.1953 10.75 19.1953 11.625C19.1953 12.5547 19.9609 13.375 20.9453 13.375Z" fill="white"/>
</svg>
