<svg width="16" height="16" viewBox="0 0 16 16" fill="none" xmlns="http://www.w3.org/2000/svg">
<path d="M7.78651 0.189649C7.81654 -0.0632164 8.18346 -0.0632164 8.21349 0.189649L8.4652 2.31096C8.79021 5.05015 10.9499 7.20979 13.689 7.53481L15.8103 7.78651C16.0632 7.81654 16.0632 8.18346 15.8103 8.21349L13.689 8.4652C10.9499 8.79021 8.79021 10.9499 8.4652 13.689L8.21349 15.8103C8.18346 16.0632 7.81654 16.0632 7.78651 15.8103L7.53481 13.689C7.20979 10.9499 5.05015 8.79021 2.31096 8.4652L0.189649 8.21349C-0.0632164 8.18346 -0.0632164 7.81654 0.189649 7.78651L2.31096 7.53481C5.05015 7.20979 7.20979 5.05015 7.53481 2.31096L7.78651 0.189649Z" fill="white"/>
</svg>
