<svg width="40" height="40" viewBox="0 0 40 40" fill="none" xmlns="http://www.w3.org/2000/svg">
<path d="M0 10C0 4.47715 4.47715 0 10 0H30C35.5228 0 40 4.47715 40 10V30C40 35.5228 35.5228 40 30 40H10C4.47715 40 0 35.5228 0 30V10Z" fill="#4973B2"/>
<path d="M15 28C15 28.7031 14.4141 29.25 13.75 29.1719H11.25C10.5469 29.1719 10 28.625 10 27.9609V19.25C10 18.5859 10.5469 18 11.25 18H13.75C14.4141 18 15 18.5469 15 19.25V28ZM30 19.2891C30 20.2656 29.2188 21.0859 28.2422 21.125C28.5547 21.4766 28.75 21.9062 28.75 22.4141C28.75 23.3125 28.0859 24.0547 27.1875 24.25C27.3828 24.5234 27.5 24.8359 27.5 25.1875C27.5 26.0469 26.9531 26.75 26.1719 26.9844C26.2109 27.1016 26.25 27.2578 26.25 27.4141C26.25 28.4297 25.3906 29.25 24.375 29.25H22.0703C20.7031 29.25 19.4141 28.8203 18.3203 28L16.9922 27.0234C16.5234 26.6719 16.25 26.125 16.25 25.5V19.25C16.25 19.2891 16.25 19.25 16.25 19.25C16.25 18.7031 16.4844 18.1953 16.9531 17.8047L17.5781 17.2969C20.7812 14.7578 19.3359 11.75 21.7969 11.75C23.0078 11.75 23.75 12.7266 23.75 13.6641C23.75 14.25 23.2812 15.9297 22.3828 17.4141H28.125C29.1406 17.4141 30 18.2344 30 19.2891Z" fill="#F3F3F3"/>
</svg>
