<svg width="303" height="92" viewBox="0 0 303 92" fill="none" xmlns="http://www.w3.org/2000/svg">
<path d="M85.0594 53.68H81.4194C79.5394 53.68 76.3794 53.76 76.0994 53.76C75.2194 53.76 74.9794 53.44 74.9794 52.48C75.0194 50.24 75.0594 47.72 75.0594 45.8V33.24C75.0594 31.28 75.0194 28.88 74.9794 26.56C74.9794 25.6 75.2194 25.28 76.0994 25.28C76.3794 25.28 79.5394 25.36 81.4194 25.36H86.3394C94.2594 25.36 98.9794 29.76 98.9794 38.68C98.9794 48 93.8594 53.68 85.0594 53.68ZM79.6994 30.88V48.36C79.6994 49.36 79.8994 49.56 80.8994 49.56H84.9394C91.2194 49.56 94.2594 45.28 94.2594 38.92C94.2594 33.52 91.6994 29.68 85.8994 29.68H80.8994C79.8994 29.68 79.6994 29.88 79.6994 30.88ZM112.161 53.68H108.521C106.641 53.68 103.481 53.76 103.201 53.76C102.321 53.76 102.081 53.44 102.081 52.48C102.121 50.24 102.161 47.72 102.161 45.8V33.24C102.161 31.28 102.121 28.88 102.081 26.56C102.081 25.6 102.321 25.28 103.201 25.28C103.481 25.28 106.641 25.36 108.521 25.36H113.441C121.361 25.36 126.081 29.76 126.081 38.68C126.081 48 120.961 53.68 112.161 53.68ZM106.801 30.88V48.36C106.801 49.36 107.001 49.56 108.001 49.56H112.041C118.321 49.56 121.361 45.28 121.361 38.92C121.361 33.52 118.801 29.68 113.001 29.68H108.001C107.001 29.68 106.801 29.88 106.801 30.88ZM138.823 53.68H135.623C133.743 53.68 130.583 53.76 130.303 53.76C129.463 53.76 129.183 53.48 129.183 52.64C129.183 52.36 129.263 48.04 129.263 45.8V33.24C129.263 31.28 129.183 27.24 129.183 26.56C129.183 25.6 129.423 25.28 130.303 25.28C130.743 25.28 133.743 25.36 135.623 25.36H138.703C144.463 25.36 147.863 26.88 147.863 31.76C147.863 34.08 147.343 36.28 145.263 37.8C144.943 38.04 144.743 38.2 144.743 38.32C144.743 38.52 144.943 38.64 145.383 38.8C147.703 39.72 149.223 41.72 149.223 45C149.223 50.96 145.263 53.68 138.823 53.68ZM133.783 30.48V35.72C133.783 36.72 133.983 36.92 134.983 36.92H138.183C141.143 36.92 143.263 35.8 143.263 32.6C143.263 29.96 141.103 29.28 138.663 29.28H134.983C133.983 29.28 133.783 29.48 133.783 30.48ZM133.783 41.96V48.64C133.783 49.64 133.983 49.84 134.983 49.84H138.743C142.063 49.84 144.503 48.28 144.503 44.96C144.503 41.92 142.543 40.76 139.463 40.76H134.983C133.983 40.76 133.783 40.96 133.783 41.96ZM167.918 47H158.118C157.078 47 156.798 47.08 156.438 47.96C155.878 49.28 155.358 50.64 154.678 52.56C154.317 53.52 154.118 53.68 153.078 53.68H150.278C149.638 53.68 149.358 53.6 149.358 53.28C149.358 53.12 149.438 52.92 149.598 52.6C150.838 49.8 151.718 47.8 152.558 45.84L158.278 32.28C158.997 30.56 159.838 28.64 160.678 26.48C161.038 25.52 161.238 25.36 162.278 25.36H163.998C165.038 25.36 165.238 25.52 165.598 26.48C166.438 28.64 167.238 30.56 167.958 32.24L173.718 45.76C174.598 47.84 175.478 49.84 176.718 52.6C176.878 52.92 176.958 53.12 176.958 53.28C176.958 53.6 176.678 53.68 176.038 53.68H172.958C171.918 53.68 171.718 53.52 171.358 52.56C170.678 50.64 170.158 49.28 169.598 47.96C169.238 47.08 168.997 47 167.918 47ZM162.598 32.88L158.838 42.04C158.717 42.32 158.678 42.56 158.678 42.72C158.678 43.08 158.958 43.16 159.598 43.16H166.438C167.078 43.16 167.358 43.08 167.358 42.72C167.358 42.56 167.318 42.32 167.198 42.04L163.478 32.88C163.318 32.48 163.198 32.24 163.038 32.24C162.918 32.24 162.758 32.44 162.598 32.88ZM188.532 53.68H185.412C183.532 53.68 180.372 53.76 180.092 53.76C179.252 53.76 178.972 53.48 178.972 52.64C178.972 52.36 179.052 48.04 179.052 45.8V33.36C179.052 31.04 178.932 26.64 178.932 26.36C178.932 25.52 179.172 25.36 180.092 25.36H182.652C183.572 25.36 183.812 25.52 183.812 26.36C183.812 26.64 183.692 31.04 183.692 33.36V48.28C183.692 49.28 183.892 49.48 184.892 49.48H188.532C190.452 49.48 194.052 49.36 194.332 49.36C195.172 49.36 195.332 49.6 195.332 50.52V52.6C195.332 53.52 195.172 53.76 194.332 53.76C194.052 53.76 190.452 53.68 188.532 53.68ZM208.094 53.68H204.974C203.094 53.68 199.934 53.76 199.654 53.76C198.814 53.76 198.534 53.48 198.534 52.64C198.534 52.36 198.614 48.04 198.614 45.8V33.36C198.614 31.04 198.494 26.64 198.494 26.36C198.494 25.52 198.734 25.36 199.654 25.36H202.214C203.134 25.36 203.374 25.52 203.374 26.36C203.374 26.64 203.254 31.04 203.254 33.36V48.28C203.254 49.28 203.454 49.48 204.454 49.48H208.094C210.014 49.48 213.614 49.36 213.894 49.36C214.734 49.36 214.894 49.6 214.894 50.52V52.6C214.894 53.52 214.734 53.76 213.894 53.76C213.614 53.76 210.014 53.68 208.094 53.68ZM224.937 30.88V45.68C224.937 48 225.057 52.4 225.057 52.68C225.057 53.52 224.817 53.68 223.897 53.68H221.377C220.457 53.68 220.217 53.52 220.217 52.68C220.217 52.4 220.337 48 220.337 45.68V30.88C220.337 29.88 220.137 29.68 219.137 29.68H217.897C216.217 29.68 212.777 29.8 212.497 29.8C211.657 29.8 211.497 29.56 211.497 28.64V26.44C211.497 25.52 211.657 25.28 212.497 25.28C212.777 25.28 216.417 25.36 218.297 25.36H227.017C228.897 25.36 232.537 25.28 232.817 25.28C233.657 25.28 233.817 25.52 233.817 26.44V28.64C233.817 29.56 233.657 29.8 232.817 29.8C232.537 29.8 229.097 29.68 227.417 29.68H226.137C225.137 29.68 224.937 29.88 224.937 30.88ZM249.175 47H239.375C238.335 47 238.055 47.08 237.695 47.96C237.135 49.28 236.615 50.64 235.935 52.56C235.575 53.52 235.375 53.68 234.335 53.68H231.535C230.895 53.68 230.615 53.6 230.615 53.28C230.615 53.12 230.695 52.92 230.855 52.6C232.095 49.8 232.975 47.8 233.815 45.84L239.535 32.28C240.255 30.56 241.095 28.64 241.935 26.48C242.295 25.52 242.495 25.36 243.535 25.36H245.255C246.295 25.36 246.495 25.52 246.855 26.48C247.695 28.64 248.495 30.56 249.215 32.24L254.975 45.76C255.855 47.84 256.735 49.84 257.975 52.6C258.135 52.92 258.215 53.12 258.215 53.28C258.215 53.6 257.935 53.68 257.295 53.68H254.215C253.175 53.68 252.975 53.52 252.615 52.56C251.935 50.64 251.415 49.28 250.855 47.96C250.495 47.08 250.255 47 249.175 47ZM243.855 32.88L240.095 42.04C239.975 42.32 239.935 42.56 239.935 42.72C239.935 43.08 240.215 43.16 240.855 43.16H247.695C248.335 43.16 248.615 43.08 248.615 42.72C248.615 42.56 248.575 42.32 248.455 42.04L244.735 32.88C244.575 32.48 244.455 32.24 244.295 32.24C244.175 32.24 244.015 32.44 243.855 32.88ZM269.789 53.68H266.669C264.789 53.68 261.629 53.76 261.349 53.76C260.509 53.76 260.229 53.48 260.229 52.64C260.229 52.36 260.309 48.04 260.309 45.8V33.36C260.309 31.04 260.189 26.64 260.189 26.36C260.189 25.52 260.429 25.36 261.349 25.36H263.909C264.829 25.36 265.069 25.52 265.069 26.36C265.069 26.64 264.949 31.04 264.949 33.36V48.28C264.949 49.28 265.149 49.48 266.149 49.48H269.789C271.709 49.48 275.309 49.36 275.589 49.36C276.429 49.36 276.589 49.6 276.589 50.52V52.6C276.589 53.52 276.429 53.76 275.589 53.76C275.309 53.76 271.709 53.68 269.789 53.68ZM284.432 44.76V45.68C284.432 48 284.552 52.4 284.552 52.68C284.552 53.52 284.312 53.68 283.392 53.68H280.912C279.992 53.68 279.752 53.52 279.752 52.68C279.752 52.4 279.872 48 279.872 45.68V33.36C279.872 31.04 279.752 26.64 279.752 26.36C279.752 25.52 279.992 25.36 280.912 25.36H283.392C284.312 25.36 284.552 25.52 284.552 26.36C284.552 26.64 284.432 31.04 284.432 33.36V36.72C284.432 37.16 284.512 37.36 284.712 37.36C284.832 37.36 285.032 37.28 285.232 37.04L289.592 32.32C291.232 30.52 292.792 28.84 294.992 26.28C295.672 25.52 295.992 25.36 296.992 25.36H300.632C301.152 25.36 301.392 25.48 301.392 25.72C301.392 25.88 301.312 26.04 301.072 26.28C297.912 29.52 296.192 31.36 294.152 33.48L292.312 35.44C291.952 35.84 291.752 36.12 291.752 36.4C291.752 36.64 291.912 36.92 292.152 37.32L296.472 44.32C297.992 46.6 299.432 48.84 301.872 52.68C302.072 53 302.192 53.2 302.192 53.36C302.192 53.6 301.912 53.68 301.312 53.68H298.032C296.992 53.68 296.752 53.52 296.232 52.64C294.552 49.68 293.272 47.64 291.912 45.52L288.912 40.76C288.632 40.32 288.432 40.12 288.232 40.12C287.992 40.12 287.792 40.28 287.472 40.64L284.992 43.32C284.552 43.8 284.432 44.08 284.432 44.76Z" fill="white"/>
<path d="M89.04 9.928C89.04 10.2 88.32 10.808 88.048 10.808C87.888 10.808 87.792 10.648 87.696 10.552C87.04 9.736 86.336 8.968 85.536 8.28C85.44 8.184 85.296 8.072 85.296 7.928C85.296 7.688 85.952 7.064 86.24 7.064C86.384 7.064 86.48 7.176 86.64 7.32C87.008 7.624 89.04 9.592 89.04 9.928ZM78.544 7.832C78.544 7.992 78.272 7.992 78.208 7.992C78.08 8.008 78.016 8.104 77.872 8.328C77.824 8.392 77.776 8.472 77.712 8.552C77.472 8.888 76.208 10.28 75.824 10.28C75.472 10.28 74.832 9.736 74.832 9.512C74.832 9.4 75.072 9.224 75.168 9.16C75.872 8.6 76.4 8.056 76.88 7.288C76.96 7.16 77.024 7.016 77.184 7.016C77.312 7.016 77.68 7.224 77.968 7.4C78.08 7.464 78.192 7.528 78.256 7.56C78.368 7.608 78.544 7.704 78.544 7.832ZM81.824 14.36C81.936 14.44 82.016 14.504 82.16 14.504C82.304 14.504 82.384 14.456 82.496 14.376C82.704 14.216 83.664 13.48 83.664 13.256C83.664 13.192 83.552 13.176 83.344 13.176H81.136C81.008 13.192 80.896 13.224 80.896 13.368C80.896 13.432 80.928 13.48 80.96 13.512C81.248 13.848 81.472 14.088 81.824 14.36ZM82.544 6.616H81.696C81.392 6.616 81.248 6.744 81.216 7.048C80.992 9.128 80.16 10.424 78.336 11.48C78.016 11.656 77.2 12.104 76.848 12.104C76.512 12.104 76.064 11.464 76.064 11.144C76.064 10.936 76.272 10.888 76.448 10.824C78.208 10.168 79.616 9.016 79.744 7.032C79.76 6.744 79.616 6.616 79.312 6.616H77.232C76.608 6.616 75.968 6.664 75.344 6.664C74.96 6.664 74.96 6.504 74.96 5.944C74.96 5.384 74.96 5.224 75.344 5.224C75.968 5.224 76.608 5.272 77.232 5.272H80.752C81.056 5.272 81.184 5.144 81.2 4.84C81.2 4.552 81.184 4.264 81.136 3.976V3.816C81.136 3.624 81.296 3.608 81.44 3.608C81.696 3.608 82.544 3.688 82.816 3.72C82.96 3.736 83.264 3.736 83.264 3.928C83.264 4.024 83.184 4.072 83.072 4.152C82.88 4.296 82.88 4.52 82.896 4.856C82.896 5.16 83.04 5.272 83.344 5.272H86.816C87.44 5.272 88.08 5.224 88.704 5.224C89.088 5.224 89.088 5.384 89.088 5.944C89.088 6.504 89.088 6.664 88.704 6.664C88.08 6.664 87.44 6.616 86.816 6.616H85.04C84.72 6.616 84.592 6.76 84.592 7.064V8.68C84.592 9 84.624 9.336 84.624 9.672C84.624 11.144 83.6 11.192 82.416 11.192C82.272 11.192 82.144 11.176 82 11.144C81.952 11.144 81.952 11.16 81.952 11.192C81.968 11.208 81.968 11.224 81.968 11.256C81.968 11.416 81.728 11.448 81.6 11.48C81.568 11.48 81.536 11.512 81.504 11.528C81.456 11.56 81.424 11.608 81.424 11.672C81.424 11.8 81.584 11.848 81.696 11.864H83.648C84.192 11.864 84.72 11.832 85.264 11.832C85.888 11.832 86.144 12.664 86.144 12.792C86.144 13.336 84.4 14.808 83.936 15.144C83.872 15.208 83.824 15.256 83.824 15.352C83.824 15.448 83.904 15.512 83.984 15.56C85.536 16.104 86.96 16.376 88.592 16.424C88.88 16.424 88.992 16.504 88.992 16.824C88.992 17.208 88.832 17.944 88.224 17.944C86.544 17.944 84.016 17.24 82.528 16.456C82.4 16.392 82.304 16.344 82.16 16.344C82.032 16.344 81.92 16.376 81.792 16.44C80.464 17.048 79.072 17.4 77.616 17.608C77.184 17.672 76.112 17.816 75.712 17.816C75.072 17.816 74.928 16.968 74.928 16.728C74.928 16.408 75.248 16.424 75.472 16.408C77.136 16.344 78.88 16.136 80.432 15.528C80.528 15.48 80.608 15.432 80.608 15.304C80.608 15.224 80.56 15.16 80.496 15.096C80.144 14.792 79.824 14.456 79.552 14.072C79.456 13.96 79.36 13.88 79.216 13.88C79.12 13.88 79.04 13.912 78.96 13.96C78.288 14.392 76.768 15.144 75.968 15.144C75.6 15.144 75.328 14.328 75.328 14.136C75.328 13.896 75.648 13.848 75.824 13.8C77.456 13.432 79.36 12.344 80.224 10.872C80.272 10.776 80.384 10.584 80.512 10.584C80.624 10.584 81.04 10.744 81.296 10.84C81.328 10.856 81.456 10.904 81.504 10.904C81.536 10.904 81.584 10.888 81.584 10.824V10.76C81.488 10.52 81.424 10.184 81.424 9.928C81.424 9.72 81.52 9.64 81.712 9.64C81.824 9.64 82.096 9.672 82.368 9.672C83.04 9.672 82.992 9.352 82.992 8.728V7.064C82.992 6.76 82.864 6.616 82.544 6.616ZM95.2 4.2C95.424 4.2 96.704 4.36 96.896 4.408C96.992 4.44 97.088 4.504 97.088 4.6C97.088 4.68 97.04 4.744 96.976 4.808C96.784 5 96.752 4.984 96.688 5.656C96.656 5.88 96.576 6.616 96.576 6.808C96.576 6.984 96.64 7.016 96.816 7.048C96.912 7.08 97.44 7.704 97.44 7.912C97.44 8.04 97.296 8.152 97.216 8.248C97.024 8.456 96.432 9.208 96.432 9.48C96.432 9.64 96.448 9.736 96.528 9.736C96.592 9.736 96.688 9.64 96.736 9.592C97.92 8.568 99.168 7.688 100.8 7.688C102.976 7.688 104.528 9.512 104.528 11.624C104.528 14.04 102.72 15.576 100.64 16.424C100.352 16.552 99.648 16.808 99.328 16.808C98.88 16.808 98.448 15.816 98.448 15.48C98.448 15.208 98.64 15.16 98.864 15.112C100.608 14.712 102.752 13.784 102.752 11.688C102.752 10.488 101.952 9.336 100.656 9.336C99.296 9.336 97.44 10.568 96.592 11.608C96.432 11.8 96.4 12.008 96.4 12.248C96.4 13.192 96.416 14.136 96.464 15.064C96.48 15.512 96.576 17.032 96.576 17.208C96.576 17.384 96.432 17.48 95.376 17.48C94.912 17.48 94.704 17.464 94.704 17.144C94.704 17.016 94.72 16.712 94.72 16.632C94.736 16.136 94.768 15.448 94.768 15.368C94.784 14.856 94.784 14.328 94.784 13.816C94.784 13.704 94.752 13.56 94.624 13.56C94.496 13.56 94.384 13.736 94.304 13.816C94 14.184 93.344 15.016 93.104 15.384C93.056 15.48 92.976 15.608 92.864 15.608C92.576 15.608 91.664 14.68 91.664 14.376C91.664 14.2 91.936 13.96 92.064 13.832C93.008 12.872 94.192 11.464 94.768 10.264C94.864 10.072 94.864 9.88 94.864 9.64V9.432C94.864 9.272 94.8 9.096 94.608 9.096C94.512 9.096 94.416 9.128 94.336 9.144C94.032 9.224 92.864 9.528 92.64 9.528C92.416 9.528 92.336 9.32 92.272 9.144C92.192 8.92 92.016 8.152 92.016 7.928C92.016 7.688 92.176 7.656 92.384 7.656H92.608C93.2 7.656 93.792 7.608 94.368 7.496C94.576 7.464 94.752 7.416 94.864 7.224C94.96 7.064 94.944 6.76 94.944 6.568C94.944 6.024 94.976 5.48 94.976 4.936C94.976 4.712 94.96 4.536 94.96 4.424C94.96 4.248 95.04 4.2 95.2 4.2ZM108.816 10.584C108.816 10.376 108.992 10.296 109.168 10.248C109.696 10.12 110.128 9.96 110.64 9.768C112.064 9.256 113.744 8.616 115.248 8.616C117.12 8.616 118.576 9.816 118.576 11.752C118.576 13.736 117.12 14.952 115.44 15.672C114.88 15.912 113.568 16.344 112.976 16.344C112.448 16.344 112.224 15.256 112.224 15.128C112.224 14.856 112.528 14.824 112.736 14.808C113.68 14.712 114.624 14.472 115.472 14.008C116.32 13.528 117.04 12.744 117.04 11.72C117.04 10.68 116.224 10.104 115.248 10.104C113.696 10.104 111.616 10.984 110.256 11.72C110.128 11.8 109.984 11.88 109.808 11.88C109.392 11.88 108.816 10.92 108.816 10.584ZM129.616 14.28C129.728 14.28 129.84 14.424 129.904 14.504C130.608 15.288 131.824 15.432 132.8 15.432C133.632 15.432 134.288 15.352 135.072 15.112C135.12 15.096 135.184 15.08 135.232 15.08C135.504 15.08 135.504 15.448 135.504 16.088C135.504 16.408 135.52 16.776 135.328 16.888C135.04 17.016 133.232 17.096 132.832 17.096C131.776 17.096 130.304 16.968 129.408 16.376C129.152 16.2 128.624 15.8 128.624 15.464C128.624 15.224 129.36 14.28 129.616 14.28ZM130.816 10.616C130.816 9.24 131.104 9.336 131.856 9.336C132.704 9.336 134.272 9.48 135.072 9.784C135.216 9.832 135.296 9.928 135.296 10.104C135.296 10.344 135.104 11 134.992 11.224C134.928 11.368 134.864 11.432 134.704 11.432C134.592 11.432 134.48 11.4 134.368 11.352C133.568 11.048 132.688 10.952 131.824 10.952C131.616 10.952 131.424 10.968 131.216 10.968C130.896 10.968 130.816 10.888 130.816 10.616ZM128.72 3.8C128.864 3.8 129.92 4.12 130.128 4.184C130.272 4.232 130.72 4.344 130.72 4.52C130.72 4.6 130.624 4.648 130.576 4.68C130.336 4.824 130.32 4.888 130.208 5.24C130.16 5.416 129.824 6.584 129.824 6.664C129.824 6.808 129.936 6.904 130.064 6.904C130.352 6.904 131.6 6.44 131.92 6.312C132.032 6.264 132.144 6.232 132.256 6.232C132.576 6.232 132.576 7.208 132.576 7.448C132.576 7.72 132.544 7.944 132.272 8.024C131.488 8.28 130.464 8.488 129.648 8.648C129.184 8.744 129.136 8.824 128.992 9.272C128.272 11.432 127.088 14.344 126.016 16.328C125.808 16.712 125.68 16.936 125.44 16.936C125.184 16.936 124.08 16.424 124.08 16.072C124.08 15.912 124.256 15.672 124.352 15.544C125.36 14.104 126.56 11.32 127.184 9.624C127.216 9.528 127.312 9.288 127.312 9.208C127.312 9.048 127.184 8.968 127.024 8.968C126.8 8.968 126.096 9.048 125.6 9.048C125.28 9.048 125.024 9.064 124.928 8.76C124.864 8.552 124.8 7.832 124.8 7.592C124.8 7.416 124.848 7.304 125.04 7.304C125.184 7.304 125.856 7.368 126.544 7.368C127.568 7.368 127.808 7.352 127.952 7.112C128.144 6.792 128.528 4.664 128.544 4.2C128.56 3.96 128.56 3.8 128.72 3.8ZM150.928 9.224C151.088 8.68 151.28 7.688 151.28 7.128C151.28 6.92 151.2 6.904 150.928 6.904H150.624C150.4 6.904 150.24 6.984 150.24 7.224V7.304C150.352 7.944 150.464 8.6 150.672 9.224C150.688 9.288 150.736 9.336 150.8 9.336C150.864 9.336 150.912 9.272 150.928 9.224ZM146.304 8.648V9.128C146.304 9.4 146.464 9.544 146.736 9.576H146.928C147.2 9.544 147.344 9.4 147.376 9.128V8.648C147.344 8.376 147.2 8.232 146.928 8.2H146.736C146.464 8.232 146.304 8.376 146.304 8.648ZM146.304 6.024V6.488C146.304 6.76 146.464 6.904 146.736 6.936H146.928C147.2 6.904 147.344 6.76 147.376 6.488V6.024C147.344 5.752 147.2 5.608 146.928 5.576H146.736C146.464 5.608 146.304 5.752 146.304 6.024ZM146.928 10.824H146.736C146.432 10.824 146.304 10.968 146.304 11.272V11.992C146.304 12.168 146.368 12.328 146.592 12.328C146.624 12.328 146.672 12.328 146.704 12.312C146.8 12.28 146.896 12.264 146.976 12.232C147.296 12.12 147.376 11.992 147.376 11.672V11.272C147.376 10.968 147.248 10.824 146.928 10.824ZM140.896 10.232C140.384 10.216 139.888 10.264 139.376 10.264C139.024 10.264 139.04 10.088 139.04 9.528C139.04 8.984 139.024 8.792 139.376 8.792C139.84 8.792 140.352 8.84 140.88 8.824C141.184 8.824 141.328 8.696 141.328 8.376V7.464C141.296 7.176 141.216 7.048 140.896 7.016C140.688 7.032 139.936 7.048 139.824 7.048C139.488 7.048 139.488 6.872 139.488 6.344C139.488 5.784 139.488 5.624 139.824 5.624C140.176 5.624 140.528 5.656 140.88 5.64C141.2 5.64 141.296 5.512 141.328 5.208C141.328 4.792 141.328 4.376 141.264 3.96V3.8C141.264 3.64 141.344 3.592 141.504 3.592C141.728 3.592 142.448 3.672 142.704 3.704C142.832 3.72 143.072 3.72 143.072 3.912C143.072 4.024 142.992 4.056 142.88 4.136C142.72 4.28 142.704 4.536 142.704 4.904V5.208C142.736 5.496 142.816 5.624 143.104 5.64C143.264 5.64 143.904 5.624 144.016 5.624C144.368 5.624 144.352 5.784 144.352 6.344C144.352 6.872 144.368 7.048 144.032 7.048C143.856 7.048 143.36 7.032 143.136 7.032C142.832 7.032 142.704 7.176 142.704 7.464V8.376C142.704 8.68 142.832 8.808 143.136 8.824C143.456 8.808 143.872 8.792 144.176 8.792C144.528 8.792 144.512 9 144.512 9.528C144.512 10.072 144.528 10.264 144.176 10.264C143.664 10.264 143.152 10.232 142.64 10.232H142.592C142.576 10.232 142.56 10.232 142.56 10.248C142.56 10.264 142.576 10.28 142.592 10.28C142.816 10.312 143.072 10.312 143.072 10.504C143.072 10.616 142.992 10.648 142.88 10.744C142.688 10.888 142.688 11.208 142.704 11.656C142.704 11.944 142.88 12.056 143.152 12.056C143.504 12.072 143.92 12.024 144.112 12.024C144.464 12.024 144.432 12.264 144.448 12.536C144.464 12.696 144.512 12.84 144.704 12.84C144.736 12.84 144.784 12.824 144.816 12.824C144.976 12.792 145.072 12.696 145.072 12.52V5.96C145.072 5.688 144.944 5.608 144.704 5.592C144.608 5.608 144.512 5.608 144.416 5.608C144.08 5.608 144.08 5.464 144.08 4.904C144.08 4.344 144.08 4.216 144.416 4.216C144.848 4.216 145.28 4.248 145.712 4.248H147.888C148.32 4.248 148.752 4.216 149.2 4.216C149.536 4.216 149.52 4.376 149.52 4.904V5.048C149.52 5.32 149.616 5.464 149.904 5.48C150.08 5.496 150.256 5.496 150.432 5.496H151.024C151.328 5.496 151.616 5.48 151.92 5.48C152.432 5.48 152.816 6.008 152.816 6.504C152.816 7.656 152.224 9.896 151.792 11C151.76 11.112 151.728 11.208 151.728 11.32C151.728 11.496 151.776 11.576 151.856 11.72C152.24 12.28 152.528 12.616 153.024 13.096C153.12 13.192 153.28 13.336 153.28 13.48C153.28 13.688 152.672 14.456 152.384 14.456C152.096 14.456 151.344 13.496 151.152 13.24C151.088 13.176 151.04 13.112 150.928 13.112C150.816 13.112 150.752 13.192 150.704 13.256C150.528 13.544 149.888 14.6 149.568 14.6C149.28 14.6 148.688 13.976 148.688 13.656C148.688 13.496 148.928 13.24 149.04 13.096C149.408 12.632 149.616 12.28 149.888 11.768C149.952 11.656 150 11.544 150 11.416C150 11.288 149.952 11.176 149.904 11.048C149.52 10.104 148.944 8.168 148.944 7.176C148.944 7.08 148.944 7.032 149.008 6.952C149.104 6.824 149.168 6.744 149.168 6.568V6.2C149.168 6.072 149.168 5.944 149.184 5.832C149.168 5.704 149.12 5.608 148.976 5.608C148.944 5.592 148.912 5.592 148.88 5.592C148.72 5.608 148.656 5.672 148.656 5.848V13.288C148.656 13.912 148.688 14.536 148.688 15.144C148.688 15.624 148.56 15.64 148.016 15.64C147.488 15.64 147.344 15.624 147.344 15.176C147.344 14.744 147.36 14.328 147.376 13.896C147.36 13.72 147.28 13.592 147.088 13.592C147.04 13.592 147.008 13.592 146.96 13.608C146.304 13.832 145.632 14.024 144.976 14.216C144.864 14.264 144.848 14.312 144.8 14.408C144.768 14.504 144.72 14.6 144.608 14.6C144.48 14.6 144.432 14.424 144.336 14.152C144.32 14.056 144.288 13.976 144.256 13.88C144.128 13.592 144.048 13.512 143.728 13.464C143.536 13.464 143.344 13.448 143.152 13.448C142.832 13.464 142.704 13.576 142.704 13.896V15.16C142.704 15.512 142.768 15.624 143.104 15.752C143.568 15.912 144.064 16.008 144.544 16.072C145.6 16.216 148.368 16.216 149.552 16.216C150.416 16.216 151.264 16.168 152.128 16.136C152.336 16.12 152.576 16.104 152.784 16.104C153.104 16.104 153.152 16.36 153.152 16.632C153.152 17.608 152.784 17.704 151.872 17.704H149.024C147.952 17.704 146.896 17.704 145.84 17.672C144.784 17.656 143.504 17.512 142.512 17.112C141.792 16.824 141.168 16.344 140.704 15.72C140.656 15.656 140.624 15.624 140.544 15.624C140.464 15.624 140.416 15.704 140.4 15.768C140.304 16.296 140.128 17.128 139.952 17.608C139.872 17.8 139.792 17.896 139.568 17.896C139.312 17.896 138.656 17.688 138.656 17.352C138.656 17.256 138.736 16.968 138.768 16.872C139.168 15.672 139.472 13.352 139.472 12.072V11.688C139.472 11.416 139.456 11.256 139.68 11.256C139.824 11.256 140.512 11.384 140.704 11.4C140.816 11.416 141.008 11.464 141.008 11.608C141.008 11.688 140.928 11.736 140.864 11.768C140.672 11.88 140.656 12.008 140.656 12.456C140.64 12.616 140.624 12.84 140.624 13.112V13.288C140.624 13.48 140.656 13.624 140.752 13.8C140.848 13.96 140.944 14.104 141.04 14.232C141.072 14.28 141.12 14.312 141.168 14.312C141.28 14.312 141.312 14.216 141.312 14.136V11.56C141.312 11.256 141.312 10.936 141.264 10.616C141.232 10.376 141.168 10.232 140.896 10.232ZM158.192 11.816V7.32C158.16 7.032 158.016 6.904 157.744 6.872H157.312C157.04 6.904 156.896 7.032 156.864 7.32V11.816C156.896 12.088 157.04 12.232 157.312 12.264H157.744C158.016 12.232 158.16 12.088 158.192 11.816ZM157.872 13.736H157.312C157.024 13.736 156.896 13.848 156.88 14.152C156.896 14.408 156.896 14.648 156.896 14.904C156.896 15.288 156.752 15.288 156.096 15.288C155.456 15.288 155.296 15.288 155.296 14.904C155.296 14.376 155.328 13.848 155.328 13.32V7.336C155.328 6.92 155.312 6.504 155.312 6.088C155.312 5.528 155.6 5.368 156.128 5.368C156.416 5.368 156.704 5.384 157.008 5.384H158.016C158.304 5.384 158.592 5.368 158.88 5.368C159.408 5.368 159.712 5.512 159.712 6.088C159.712 6.504 159.696 6.92 159.696 7.336V12.52C159.696 13.048 159.712 13.592 159.712 14.12C159.712 14.504 159.536 14.504 158.96 14.504C158.32 14.504 158.16 14.504 158.16 14.12V14.024C158.16 13.816 158.064 13.736 157.872 13.736ZM165.264 13.528C165.248 13.496 165.216 13.464 165.152 13.464C165.088 13.464 165.056 13.544 165.056 13.608V15.064C165.056 15.88 165.088 16.696 165.088 17.512C165.088 18.008 164.912 18.008 164.24 18.008C163.584 18.008 163.376 18.008 163.376 17.528C163.376 16.712 163.424 15.88 163.424 15.064V13.624C163.408 13.544 163.392 13.464 163.296 13.464C163.248 13.464 163.216 13.496 163.184 13.528C162.304 14.776 161.232 15.896 160.032 16.84C159.92 16.92 159.776 17.048 159.616 17.048C159.312 17.048 158.72 16.296 158.72 15.992C158.72 15.832 158.944 15.704 159.088 15.592C160.576 14.472 161.632 13.336 162.688 11.8C162.72 11.752 162.752 11.704 162.752 11.64C162.752 11.48 162.608 11.448 162.48 11.432H162.24C161.648 11.432 161.056 11.464 160.464 11.464C160.064 11.464 160.08 11.272 160.08 10.712C160.08 10.168 160.064 9.944 160.464 9.944C161.056 9.944 161.648 9.992 162.24 9.992H162.976C163.296 9.992 163.424 9.848 163.424 9.544V8.296C163.424 7.976 163.28 7.848 162.976 7.848H162.592C162.032 7.848 161.488 7.896 160.928 7.896C160.512 7.896 160.528 7.656 160.528 7.08C160.528 6.568 160.512 6.312 160.928 6.312C161.472 6.312 162.032 6.344 162.592 6.344H162.976C163.296 6.344 163.424 6.216 163.424 5.896V5.256C163.424 4.856 163.392 4.472 163.36 4.072C163.36 4.008 163.344 3.96 163.344 3.896C163.344 3.704 163.488 3.688 163.648 3.688C163.936 3.688 164.688 3.752 165.008 3.768C165.152 3.784 165.424 3.784 165.424 3.976C165.424 4.072 165.344 4.12 165.232 4.2C165.072 4.312 165.056 4.568 165.056 5.016V5.912C165.056 6.232 165.2 6.344 165.504 6.344H166.336C166.88 6.344 167.44 6.312 167.984 6.312C168.416 6.312 168.384 6.552 168.384 7.096C168.384 7.64 168.416 7.896 168 7.896C167.44 7.896 166.88 7.848 166.336 7.848H165.504C165.184 7.848 165.056 7.976 165.056 8.296V9.544C165.056 9.848 165.184 9.992 165.504 9.992H166.864C167.456 9.992 168.048 9.944 168.64 9.944C169.024 9.944 169.024 10.152 169.024 10.712C169.024 11.272 169.024 11.464 168.64 11.464C168.048 11.464 167.456 11.432 166.864 11.432H166.016C165.888 11.448 165.744 11.48 165.744 11.656C165.744 11.704 165.76 11.752 165.792 11.8C166.704 13.32 167.712 14.472 169.072 15.608C169.184 15.704 169.312 15.8 169.312 15.96C169.312 16.296 168.576 16.984 168.304 16.984C168.096 16.984 167.648 16.536 167.488 16.376C166.56 15.48 165.936 14.632 165.264 13.528ZM176.928 7.368C176.8 7.368 176.512 7.48 176.384 7.544C174.56 8.408 173.504 10.12 173.504 12.152C173.504 12.744 173.712 14.232 174.528 14.232C175.328 14.232 176.224 12.408 176.672 10.776C176.88 10.008 177.184 8.424 177.184 7.656C177.184 7.496 177.104 7.368 176.928 7.368ZM178.464 5.496C180.032 5.496 181.472 5.96 182.608 7.08C183.68 8.152 184.224 9.496 184.224 11.016C184.224 13.24 183.056 15.144 181.104 16.184C180.736 16.376 179.744 16.824 179.36 16.824C178.944 16.824 178.288 15.832 178.288 15.48C178.288 15.32 178.528 15.288 178.688 15.256C180.784 14.76 182.432 13.384 182.432 11.096C182.432 9.384 181.536 7.848 179.872 7.272C179.728 7.224 179.408 7.128 179.264 7.128C178.896 7.128 178.896 7.48 178.88 7.752C178.704 10.088 178.144 12.936 176.608 14.776C176.08 15.416 175.376 16.008 174.496 16.008C173.52 16.008 172.752 15.304 172.32 14.488C171.968 13.832 171.824 12.968 171.824 12.216C171.824 8.472 174.688 5.496 178.464 5.496ZM190.384 6.984H197.968C198.24 6.984 198.384 6.824 198.416 6.552V6.008C198.384 5.736 198.24 5.592 197.968 5.56H190.384C190.096 5.592 189.936 5.736 189.936 6.008V6.552C189.936 6.824 190.096 6.984 190.384 6.984ZM193.056 16.008H197.728C198 15.976 198.144 15.832 198.176 15.56V14.616C198.144 14.344 198 14.2 197.728 14.168H193.056C192.768 14.2 192.64 14.344 192.608 14.616V15.56C192.64 15.832 192.768 15.976 193.056 16.008ZM198.144 17.816V17.656C198.144 17.416 198.032 17.304 197.776 17.304H192.992C192.752 17.304 192.64 17.416 192.64 17.672V17.816C192.64 18.136 192.416 18.12 191.84 18.12C191.184 18.12 190.976 18.12 190.976 17.816C190.976 17.624 191.024 17.192 191.024 16.888V14.264C191.024 13.992 190.992 13.736 190.992 13.48C190.992 12.904 191.504 12.856 191.968 12.856C192.384 12.856 192.816 12.888 193.248 12.888H194.064C194.384 12.888 194.512 12.744 194.512 12.44V11.688C194.512 11.368 194.384 11.24 194.064 11.24H190.336C190.016 11.24 189.888 11.352 189.856 11.672C189.664 13.96 189.552 15.288 188.512 17.4C188.272 17.88 188.192 18.024 187.92 18.024C187.504 18.024 186.72 17.608 186.72 17.304C186.72 17.192 186.848 16.952 186.912 16.856C188.112 14.472 188.288 11.96 188.288 9.336V6.6C188.288 6.088 188.256 5.592 188.256 5.08C188.256 4.44 188.528 4.264 189.136 4.264C189.616 4.264 190.096 4.296 190.576 4.296H197.776C198.224 4.296 198.672 4.264 199.136 4.264C199.712 4.264 200.016 4.424 200.016 5.048C200.016 5.352 199.984 5.64 199.984 5.944V6.616C199.984 6.92 200.016 7.208 200.016 7.512C200.016 8.136 199.728 8.296 199.152 8.296C198.688 8.296 198.224 8.264 197.776 8.264H190.384C190.064 8.264 189.936 8.408 189.936 8.712V9.48C189.936 9.784 190.064 9.912 190.368 9.912H194.064C194.384 9.912 194.496 9.8 194.512 9.496C194.512 9.432 194.448 8.744 194.448 8.68C194.448 8.488 194.576 8.456 194.736 8.456C194.944 8.456 195.968 8.52 196.192 8.536C196.32 8.552 196.528 8.568 196.528 8.744C196.528 8.856 196.4 8.92 196.304 8.968C196.128 9.064 196.144 9.192 196.128 9.48C196.144 9.784 196.256 9.912 196.576 9.912H198.8C199.424 9.912 200.064 9.88 200.704 9.88C201.056 9.88 201.04 10.072 201.04 10.584C201.04 11.096 201.056 11.272 200.704 11.272C200.064 11.272 199.44 11.24 198.8 11.24H196.576C196.256 11.24 196.128 11.368 196.128 11.688V12.44C196.128 12.744 196.256 12.888 196.576 12.888H197.536C197.968 12.888 198.4 12.856 198.816 12.856C199.232 12.856 199.776 12.92 199.776 13.448C199.776 13.72 199.76 13.992 199.76 14.264V16.888C199.76 17.208 199.792 17.688 199.792 17.816C199.792 18.136 199.568 18.12 198.96 18.12C198.368 18.12 198.144 18.136 198.144 17.816ZM213.808 7.192H211.008C210.784 7.192 210.624 7.352 210.624 7.576V7.736C210.624 7.96 210.784 8.12 211.008 8.12H213.808C214.032 8.12 214.192 7.96 214.192 7.736V7.576C214.192 7.352 214.032 7.192 213.808 7.192ZM211.008 6.216H213.808C214.032 6.216 214.192 6.056 214.192 5.832V5.688C214.192 5.464 214.032 5.304 213.808 5.304H211.008C210.784 5.304 210.624 5.464 210.624 5.688V5.832C210.624 6.056 210.784 6.216 211.008 6.216ZM215.712 5.736V7.688C215.712 7.976 215.744 8.28 215.744 8.568C215.744 9.112 215.456 9.288 214.944 9.288C214.528 9.288 214.128 9.256 213.728 9.256H211.104C210.704 9.256 210.304 9.288 209.904 9.288C209.376 9.288 209.072 9.128 209.072 8.568C209.072 8.264 209.104 7.976 209.104 7.688V5.736C209.104 5.432 209.072 5.144 209.072 4.856C209.072 4.296 209.36 4.136 209.888 4.136C210.288 4.136 210.688 4.168 211.104 4.168H213.728C214.128 4.168 214.528 4.136 214.928 4.136C215.44 4.136 215.744 4.28 215.744 4.856C215.744 5.144 215.712 5.448 215.712 5.736ZM214.368 13.496C214.176 13.512 214.08 13.576 214 13.752C213.344 15.272 212.128 16.84 210.8 17.832C210.672 17.928 210.48 18.088 210.336 18.088C210.096 18.088 209.568 17.656 209.568 17.4C209.568 17.256 209.792 17.096 209.904 17.016C210.944 16.328 212.08 14.968 212.704 13.88C212.72 13.832 212.736 13.784 212.736 13.736C212.736 13.56 212.608 13.512 212.464 13.496H212.336C212.064 13.496 211.92 13.56 211.776 13.784C211.328 14.504 210.8 15.16 210.192 15.752C209.568 16.36 209.28 16.552 208.56 17.016C208.496 17.064 208.416 17.08 208.336 17.08C208.096 17.08 207.584 16.616 207.584 16.376C207.584 16.232 207.84 16.104 207.952 16.024C208.928 15.416 209.68 14.744 210.4 13.832C210.432 13.784 210.464 13.752 210.464 13.688C210.464 13.544 210.336 13.512 210.224 13.496H210.16C209.872 13.496 209.76 13.544 209.568 13.736C208.992 14.36 208.384 14.904 207.696 15.352C207.568 15.448 207.376 15.592 207.216 15.592C206.96 15.592 206.448 15.048 206.448 14.792C206.448 14.648 206.608 14.552 206.816 14.408C207.952 13.656 208.784 12.856 209.52 11.704C209.552 11.656 209.568 11.608 209.568 11.56C209.568 11.416 209.456 11.352 209.328 11.336C208.96 11.352 208.32 11.368 207.984 11.368C207.632 11.368 207.648 11.112 207.648 10.664C207.648 10.216 207.632 9.96 207.984 9.96C208.592 9.96 209.184 10.008 209.792 10.008H214.96C215.552 10.008 216.16 9.96 216.768 9.96C217.12 9.96 217.104 10.216 217.104 10.664C217.104 11.112 217.12 11.368 216.768 11.368C216.16 11.368 215.552 11.336 214.96 11.336H211.536C211.296 11.336 211.216 11.4 211.104 11.592C211.072 11.64 211.056 11.688 211.024 11.736C211.008 11.784 210.992 11.832 210.992 11.88C210.992 12.04 211.12 12.088 211.264 12.104H214.448C214.864 12.104 215.28 12.072 215.68 12.072C216.288 12.072 216.4 12.376 216.4 12.92C216.4 13.928 216.256 15.928 215.936 16.84C215.552 17.928 214.688 18.024 213.664 18.024C212.912 18.024 212.64 18.04 212.64 16.792C212.64 16.6 212.656 16.392 212.912 16.392C213.056 16.392 213.312 16.424 213.472 16.44C213.584 16.456 213.68 16.456 213.792 16.456C214.256 16.456 214.384 16.376 214.528 15.928C214.672 15.432 214.784 14.328 214.784 13.8C214.784 13.496 214.608 13.512 214.368 13.496ZM204.352 13C204.656 12.872 204.736 12.744 204.736 12.408V9.032C204.736 8.728 204.624 8.616 204.304 8.584C203.968 8.584 203.616 8.632 203.312 8.632C202.976 8.632 202.992 8.408 202.992 7.848C202.992 7.256 202.976 7.064 203.312 7.064C203.456 7.064 204.096 7.08 204.288 7.096C204.608 7.08 204.736 6.968 204.736 6.648V5.448C204.736 5.016 204.736 4.584 204.688 4.184C204.672 4.136 204.672 4.056 204.672 3.992C204.672 3.816 204.784 3.784 204.944 3.784C205.184 3.784 206.144 3.864 206.432 3.88C206.544 3.896 206.736 3.928 206.736 4.088C206.736 4.2 206.64 4.248 206.496 4.344C206.336 4.44 206.32 4.616 206.32 5.144V6.648C206.32 6.968 206.448 7.096 206.752 7.096C207.12 7.112 207.472 7.064 207.84 7.064C208.16 7.064 208.16 7.24 208.16 7.848C208.16 8.424 208.176 8.632 207.84 8.632C207.6 8.632 207.12 8.6 206.752 8.584C206.448 8.616 206.32 8.728 206.32 9.032V11.784C206.32 11.944 206.384 12.104 206.56 12.104C206.624 12.104 206.672 12.072 206.72 12.056C206.768 12.04 206.928 11.96 207.088 11.88C207.408 11.72 207.824 11.528 207.888 11.528C208.128 11.528 208.176 12.392 208.176 12.568C208.176 12.808 208.112 12.936 207.904 13.048C206.768 13.64 205.328 14.264 204.128 14.744C203.856 14.856 203.808 14.904 203.776 15C203.712 15.176 203.664 15.304 203.536 15.304C203.36 15.304 203.312 15.128 203.184 14.792C203.104 14.6 202.816 13.832 202.816 13.672C202.816 13.448 203.04 13.416 203.216 13.368C203.6 13.272 203.968 13.16 204.352 13ZM223.728 5.864H221.088C220.576 5.864 220.048 5.896 219.536 5.896C219.136 5.896 219.136 5.656 219.136 5.08C219.136 4.52 219.136 4.264 219.536 4.264C220.048 4.264 220.576 4.312 221.088 4.312H223.728C224.24 4.312 224.768 4.264 225.28 4.264C225.696 4.264 225.68 4.536 225.68 5.08C225.68 5.64 225.696 5.896 225.28 5.896C224.768 5.896 224.24 5.864 223.728 5.864ZM223.648 10.52V9.192C223.648 8.872 223.52 8.744 223.2 8.744H221.84C221.536 8.744 221.408 8.872 221.408 9.192V10.52C221.408 10.84 221.536 10.968 221.84 10.968H223.2C223.52 10.968 223.648 10.84 223.648 10.52ZM221.344 12.856C221.216 14.504 221.008 15.784 220.4 17.336C220.208 17.8 220.128 17.88 219.936 17.88C219.728 17.88 218.64 17.48 218.64 17.16C218.64 17.064 218.72 16.936 218.752 16.856C219.616 15 219.824 12.824 219.824 10.808V9.064C219.824 8.664 219.808 8.264 219.808 7.864C219.808 7.288 220.128 7.176 220.64 7.176C221.024 7.176 221.424 7.208 221.824 7.208H223.2C223.6 7.208 223.984 7.176 224.384 7.176C224.896 7.176 225.216 7.288 225.216 7.864C225.216 8.264 225.2 8.664 225.2 9.064V10.968C225.2 11.464 225.232 11.944 225.232 12.424C225.232 12.808 225.056 12.808 224.416 12.808C223.904 12.808 223.792 12.808 223.68 12.696C223.584 12.584 223.472 12.44 223.328 12.424H221.808C221.504 12.424 221.376 12.552 221.344 12.856ZM228.288 6.76V8.264C228.288 8.584 228.416 8.712 228.736 8.712H230.8C231.424 8.712 232.064 8.68 232.704 8.68C233.12 8.68 233.088 8.84 233.088 9.48C233.088 10.104 233.104 10.264 232.704 10.264C232.48 10.264 232.112 10.248 231.888 10.232C231.568 10.264 231.456 10.36 231.456 10.664V15.368C231.456 16.072 231.504 16.776 231.504 17.48C231.504 18.008 231.328 18.008 230.656 18.008C229.984 18.008 229.792 18.008 229.792 17.48C229.792 16.776 229.84 16.072 229.84 15.368V10.664C229.84 10.36 229.712 10.216 229.392 10.216H228.736C228.432 10.216 228.32 10.328 228.272 10.648C228.192 12.584 227.856 14.296 227.024 16.072C226.8 16.536 226.416 17.224 226.064 17.576C225.952 17.688 225.856 17.752 225.696 17.752C225.36 17.752 224.464 17.336 224.464 17.032C224.464 16.92 224.592 16.808 224.656 16.728C225.168 16.088 225.536 15.544 225.872 14.792C226.512 13.304 226.656 11.336 226.656 9.736V5.64C226.656 4.92 227.28 4.92 227.696 4.888C228.768 4.792 230.736 4.488 231.68 3.992C231.744 3.96 231.792 3.928 231.872 3.928C232.128 3.928 232.48 4.424 232.64 4.632C232.816 4.856 233.072 5.176 233.072 5.32C233.072 5.432 232.96 5.512 232.848 5.512C232.752 5.512 232.704 5.48 232.624 5.432C232.544 5.4 232.464 5.368 232.384 5.368C232.288 5.368 232.08 5.432 231.984 5.464C230.816 5.8 230.112 5.944 228.864 6.12C228.368 6.184 228.288 6.2 228.288 6.76Z" fill="white"/>
<path d="M28.0862 23.8184C30.2064 17.0683 35.638 11.8758 42.4766 10.0615L48.1802 8.54832C51.4443 7.68235 54.9149 8.08061 57.8979 9.66344C61.31 11.4739 63.7749 14.6686 64.6606 18.4283L67.5789 30.816C68.3953 34.2819 68.0136 37.9222 66.496 41.1433C64.7033 44.9483 61.4635 47.8784 57.4981 49.2811L54.1178 50.4768C49.8359 51.9915 45.1641 51.9915 40.8822 50.4768C34.9993 48.3958 30.4379 43.6688 28.568 37.7154L28.0862 36.1816C26.8222 32.1575 26.8222 27.8425 28.0862 23.8184Z" stroke="white" stroke-width="6" stroke-linecap="round"/>
<path d="M48.5 54C48.5 62.6417 48.5 67.4867 48.5 76.1284M48.5 54L1 68.5321M48.5 54L147 73.5M48.5 76.1284L12.5 90M48.5 76.1284L165 90" stroke="white" stroke-width="3" stroke-dasharray="10 10"/>
</svg>
