<svg width="12" height="11" viewBox="0 0 12 11" fill="none" xmlns="http://www.w3.org/2000/svg">
<path d="M8.07031 0.640625C8.55859 0.152344 9.35938 0.152344 9.84766 0.640625L10.6094 1.40234C11.0977 1.89062 11.0977 2.69141 10.6094 3.17969L9.67188 4.11719L7.13281 1.57812L8.07031 0.640625ZM9.22266 4.56641L4.67188 9.11719C4.47656 9.3125 4.22266 9.46875 3.94922 9.54688L1.58594 10.2305C1.42969 10.2891 1.25391 10.25 1.13672 10.1133C1 9.99609 0.960938 9.82031 1 9.66406L1.70312 7.30078C1.78125 7.02734 1.9375 6.77344 2.13281 6.57812L6.68359 2.02734L9.22266 4.56641Z" fill="#999999"/>
</svg>
